# Blender v2.76 (sub 0) OBJ File: 'constructionObstacle.blend'
# www.blender.org
mtllib constructionObstacle.mtl
o Cube.001
v -3.510715 3.685764 0.578539
v -3.510715 4.597938 0.385815
v -3.510715 3.650471 0.411494
v -3.510715 4.562645 0.218771
v -3.797561 3.685764 0.578539
v -3.797561 4.597938 0.385815
v -3.797561 3.650471 0.411494
v -3.797561 4.562645 0.218771
v -3.510715 4.535553 0.090541
v -3.510715 3.623378 0.283264
v -3.797561 4.535553 0.090541
v -3.797561 3.623378 0.283264
v -3.510715 4.991151 0.128236
v -3.797561 4.991151 0.128236
v -3.797561 2.416222 0.672266
v -3.510715 2.416222 0.672266
v -3.797561 2.389130 0.544036
v -3.510715 2.389130 0.544036
v -3.797561 1.936266 0.773671
v -3.510715 1.936266 0.773671
v -3.797561 1.909173 0.645441
v -3.510715 1.909173 0.645441
v -3.797561 1.294711 0.909218
v -3.510715 1.294711 0.909218
v -3.797561 1.267619 0.780988
v -3.510715 1.267619 0.780988
v -3.797561 2.369907 0.453054
v -3.510715 2.369907 0.453054
v -3.797561 1.889951 0.554459
v -3.510715 1.889951 0.554459
v 3.510715 3.685764 0.578539
v 3.510715 4.597938 0.385815
v 3.510715 3.650471 0.411494
v 3.510715 4.562645 0.218771
v 0.000000 3.685764 0.578539
v 0.000000 4.597938 0.385815
v 0.000000 3.650471 0.411494
v 0.000000 4.562645 0.218771
v 3.797561 3.685764 0.578539
v 3.797561 4.597938 0.385815
v 3.797561 3.650471 0.411494
v 3.797561 4.562645 0.218771
v 3.510715 4.535553 0.090541
v 3.510715 3.623378 0.283264
v 3.797561 4.535553 0.090541
v 3.797561 3.623378 0.283264
v 3.510715 4.991151 0.128236
v 3.797561 4.991151 0.128236
v 3.797561 2.416222 0.672266
v 3.510715 2.416222 0.672266
v 3.797561 2.389130 0.544036
v 3.510715 2.389130 0.544036
v 3.797561 1.936266 0.773671
v 3.510715 1.936266 0.773671
v 3.797561 1.909173 0.645441
v 3.510715 1.909173 0.645441
v 3.797561 1.294711 0.909218
v 3.510715 1.294711 0.909218
v 3.797561 1.267619 0.780988
v 3.510715 1.267619 0.780988
v 3.797561 2.369907 0.453054
v 3.510715 2.369907 0.453054
v 3.797561 1.889951 0.554459
v 3.510715 1.889951 0.554459
v 0.000000 1.909173 0.645441
v 0.000000 2.389130 0.544036
v 0.000000 1.889951 0.554459
v 0.000000 2.369907 0.453054
v -3.510715 3.685764 -0.578539
v -3.510715 4.597938 -0.385815
v -3.510715 3.650471 -0.411494
v -3.510715 4.562645 -0.218771
v -3.797561 3.685764 -0.578539
v -3.797561 4.597938 -0.385815
v -3.797561 3.650471 -0.411494
v -3.797561 4.562645 -0.218771
v -3.510715 4.535553 -0.090541
v -3.510715 3.623378 -0.283264
v -3.797561 4.535553 -0.090541
v -3.797561 3.623378 -0.283264
v -3.510715 4.991151 -0.128236
v -3.797561 4.991151 -0.128236
v -3.510715 4.964059 0.000000
v -3.797561 4.964059 0.000000
v -3.797561 2.416222 -0.672266
v -3.510715 2.416222 -0.672266
v -3.797561 2.389130 -0.544036
v -3.510715 2.389130 -0.544036
v -3.797561 1.936266 -0.773671
v -3.510715 1.936266 -0.773671
v -3.797561 1.909173 -0.645441
v -3.510715 1.909173 -0.645441
v -3.797561 1.294711 -0.909218
v -3.510715 1.294711 -0.909218
v -3.797561 1.267619 -0.780988
v -3.510715 1.267619 -0.780988
v -3.797561 2.369907 -0.453054
v -3.510715 2.369907 -0.453054
v -3.797561 1.889951 -0.554459
v -3.510715 1.889951 -0.554459
v 3.510715 3.685764 -0.578539
v 3.510715 4.597938 -0.385815
v 3.510715 3.650471 -0.411494
v 3.510715 4.562645 -0.218771
v 0.000000 3.685764 -0.578539
v 0.000000 4.597938 -0.385815
v 0.000000 3.650471 -0.411494
v 0.000000 4.562645 -0.218771
v 3.797561 3.685764 -0.578539
v 3.797561 4.597938 -0.385815
v 3.797561 3.650471 -0.411494
v 3.797561 4.562645 -0.218771
v 3.510715 4.535553 -0.090541
v 3.510715 3.623378 -0.283264
v 3.797561 4.535553 -0.090541
v 3.797561 3.623378 -0.283264
v 3.510715 4.991151 -0.128236
v 3.797561 4.991151 -0.128236
v 3.510715 4.964059 0.000000
v 3.797561 4.964059 0.000000
v 3.797561 2.416222 -0.672266
v 3.510715 2.416222 -0.672266
v 3.797561 2.389130 -0.544036
v 3.510715 2.389130 -0.544036
v 3.797561 1.936266 -0.773671
v 3.510715 1.936266 -0.773671
v 3.797561 1.909173 -0.645441
v 3.510715 1.909173 -0.645441
v 3.797561 1.294711 -0.909218
v 3.510715 1.294711 -0.909218
v 3.797561 1.267619 -0.780988
v 3.510715 1.267619 -0.780988
v 3.797561 2.369907 -0.453054
v 3.510715 2.369907 -0.453054
v 3.797561 1.889951 -0.554459
v 3.510715 1.889951 -0.554459
v 0.000000 1.909173 -0.645441
v 0.000000 2.389130 -0.544036
v 0.000000 1.889951 -0.554459
v 0.000000 2.369907 -0.453054
vt 0.000000 0.924465
vt 0.210553 0.924465
vt 0.210553 0.999999
vt 0.000000 0.999999
vt -0.001074 0.924466
vt -0.001074 0.000000
vt 0.209478 0.000000
vt 0.209478 0.924466
vt 0.210553 0.000000
vt 0.000000 0.000000
vt 0.038783 0.924466
vt 0.000225 0.924466
vt 0.000225 0.000000
vt 0.038783 0.000001
vt 0.040136 0.999999
vt 0.001578 1.000000
vt 0.001578 0.075534
vt 0.040136 0.075534
vt -0.001245 0.754069
vt 0.037320 0.754351
vt 0.038198 0.999811
vt -0.000368 0.999530
vt 0.851282 0.924466
vt 0.889840 0.924466
vt 0.889840 1.000000
vt 0.851282 1.000000
vt 0.001578 0.000000
vt 0.040136 0.000000
vt 0.721720 0.360830
vt 0.786501 0.360830
vt 0.786501 0.693015
vt 0.721720 0.693015
vt 0.786501 0.115328
vt 0.721720 0.115328
vt 0.681212 0.360605
vt 0.688646 0.115256
vt 0.718227 0.116475
vt 0.710792 0.361824
vt 0.928399 0.879530
vt 0.957997 0.879531
vt 0.957998 0.994859
vt 0.928399 0.994858
vt 0.928399 0.634028
vt 0.957998 0.634028
vt 0.721720 0.941217
vt 0.721720 0.865683
vt 0.751320 0.865683
vt 0.751320 0.941217
vt 0.721720 0.000000
vt 0.786501 0.000000
vt 0.851282 0.994859
vt 0.786501 0.994859
vt 0.786501 0.879531
vt 0.851282 0.879531
vt 0.692139 0.000000
vt 0.721720 0.001218
vt 0.671152 0.692583
vt 0.700732 0.693802
vt 0.696820 0.822897
vt 0.667240 0.821678
vt 0.851282 0.000000
vt 0.851282 0.332185
vt 0.786501 0.332185
vt 0.928399 0.301843
vt 0.957998 0.301843
vt 0.786501 0.461361
vt 0.851282 0.461361
vt 0.851282 0.634028
vt 0.786501 0.634028
vt 0.928399 0.172668
vt 0.957998 0.172668
vt 1.000000 0.924466
vt 0.978999 0.924466
vt 0.978999 0.000000
vt 1.000000 0.000000
vt 0.780918 0.865683
vt 0.780918 0.941217
vt 0.928399 0.000000
vt 0.957998 0.000000
vt 0.786501 0.865683
vt 0.691592 0.995457
vt 0.662011 0.994238
vt 0.936188 0.000000
vt 0.936188 0.075534
vt 0.825402 0.075534
vt 0.825403 0.000000
vt 1.000000 1.000000
vt 0.978999 1.000000
vt 0.957998 1.000000
vt 0.957998 0.924466
vt 0.721720 0.694667
vt 0.717808 0.823761
vt 0.935646 0.924466
vt 0.824860 0.924466
vt 0.824860 0.000000
vt 0.935646 0.000000
vt 0.936188 1.000000
vt 0.825403 1.000000
vt 0.825059 0.879531
vt 0.825059 0.634028
vt 0.825059 0.763204
vt 0.846060 0.763204
vt 0.846060 0.634028
vn 0.000000 0.206700 0.978400
vn 0.000000 -0.206700 -0.978400
vn 0.000000 -0.978400 0.206700
vn 0.000000 0.978400 -0.206700
vn -1.000000 0.000000 0.000000
vn 1.000000 0.000000 0.000000
vn 0.000000 0.206700 -0.978400
vn 0.000000 -0.206700 0.978400
vn 0.000000 -0.978400 -0.206700
vn 0.000000 0.978400 0.206700
usemtl Material.001
s off
f 1/1/1 2/2/1 6/3/1 5/4/1
f 4/5/2 38/6/2 37/7/2 3/8/2
f 36/9/1 2/2/1 1/1/1 35/10/1
f 1/11/3 3/12/3 37/13/3 35/14/3
f 36/15/4 38/16/4 4/17/4 2/18/4
f 6/19/5 8/20/5 7/21/5 5/22/5
f 3/23/3 1/24/3 5/25/3 7/26/3
f 2/18/4 4/17/4 8/27/4 6/28/4
f 12/29/2 10/30/2 18/31/2 17/32/2
f 9/33/2 10/30/2 12/29/2 11/34/2
f 7/35/5 8/36/5 11/37/5 12/38/5
f 4/39/6 9/40/6 83/41/6 13/42/6
f 4/39/6 3/43/6 10/44/6 9/40/6
f 14/45/4 13/46/4 83/47/4 84/48/4
f 9/33/2 11/34/2 84/49/2 83/50/2
f 8/51/1 4/52/1 13/53/1 14/54/1
f 11/37/5 8/36/5 14/55/5 84/56/5
f 15/57/5 17/58/5 21/59/5 19/60/5
f 3/50/1 7/61/1 15/62/1 16/63/1
f 10/44/6 3/43/6 16/64/6 18/65/6
f 7/35/5 12/38/5 17/58/5 15/57/5
f 20/66/1 19/67/1 23/68/1 24/69/1
f 16/63/1 15/62/1 19/67/1 20/66/1
f 18/65/6 16/64/6 20/70/6 22/71/6
f 22/72/3 30/73/3 67/74/3 65/75/3
f 24/76/3 23/77/3 25/48/3 26/47/3
f 22/71/6 20/70/6 24/78/6 26/79/6
f 21/32/2 22/31/2 26/80/2 25/46/2
f 19/60/5 21/59/5 25/81/5 23/82/5
f 27/83/2 28/84/2 30/85/2 29/86/2
f 22/72/3 21/87/3 29/88/3 30/73/3
f 17/89/4 18/90/4 28/73/4 27/88/4
f 21/59/5 17/58/5 27/91/5 29/92/5
f 18/93/1 22/94/1 65/95/1 66/96/1
f 28/73/4 18/90/4 66/79/4 68/74/4
f 30/85/2 28/84/2 68/97/2 67/98/2
f 31/1/1 39/4/1 40/3/1 32/2/1
f 34/5/2 33/8/2 37/7/2 38/6/2
f 38/69/5 37/53/5 35/99/5 36/100/5
f 36/9/1 35/10/1 31/1/1 32/2/1
f 31/11/3 35/14/3 37/13/3 33/12/3
f 36/15/4 32/18/4 34/17/4 38/16/4
f 40/19/6 39/22/6 41/21/6 42/20/6
f 33/23/3 41/26/3 39/25/3 31/24/3
f 32/18/4 40/28/4 42/27/4 34/17/4
f 46/29/2 51/32/2 52/31/2 44/30/2
f 43/33/2 45/34/2 46/29/2 44/30/2
f 41/35/6 46/38/6 45/37/6 42/36/6
f 34/39/5 47/42/5 119/41/5 43/40/5
f 34/39/5 43/40/5 44/44/5 33/43/5
f 48/45/4 120/48/4 119/47/4 47/46/4
f 43/33/2 119/50/2 120/49/2 45/34/2
f 42/51/1 48/54/1 47/53/1 34/52/1
f 45/37/6 120/56/6 48/55/6 42/36/6
f 49/57/6 53/60/6 55/59/6 51/58/6
f 33/50/1 50/63/1 49/62/1 41/61/1
f 44/44/5 52/65/5 50/64/5 33/43/5
f 41/35/6 49/57/6 51/58/6 46/38/6
f 54/66/1 58/69/1 57/68/1 53/67/1
f 50/63/1 54/66/1 53/67/1 49/62/1
f 52/65/5 56/71/5 54/70/5 50/64/5
f 56/72/3 65/75/3 67/74/3 64/73/3
f 58/76/3 60/47/3 59/48/3 57/77/3
f 56/71/5 60/79/5 58/78/5 54/70/5
f 55/32/2 59/46/2 60/80/2 56/31/2
f 53/60/6 57/82/6 59/81/6 55/59/6
f 61/83/2 63/86/2 64/85/2 62/84/2
f 56/72/3 64/73/3 63/88/3 55/87/3
f 51/89/4 61/88/4 62/73/4 52/90/4
f 55/59/6 63/92/6 61/91/6 51/58/6
f 66/101/5 68/102/5 67/103/5 65/100/5
f 52/93/1 66/96/1 65/95/1 56/94/1
f 62/73/4 68/74/4 66/79/4 52/90/4
f 64/85/2 67/98/2 68/97/2 62/84/2
f 69/1/7 73/4/7 74/3/7 70/2/7
f 72/5/8 71/8/8 107/7/8 108/6/8
f 106/9/7 105/10/7 69/1/7 70/2/7
f 69/11/9 105/14/9 107/13/9 71/12/9
f 106/15/10 70/18/10 72/17/10 108/16/10
f 74/19/5 73/22/5 75/21/5 76/20/5
f 71/23/9 75/26/9 73/25/9 69/24/9
f 70/18/10 74/28/10 76/27/10 72/17/10
f 80/29/8 87/32/8 88/31/8 78/30/8
f 77/33/8 79/34/8 80/29/8 78/30/8
f 75/35/5 80/38/5 79/37/5 76/36/5
f 72/39/6 81/42/6 83/41/6 77/40/6
f 72/39/6 77/40/6 78/44/6 71/43/6
f 82/45/10 84/48/10 83/47/10 81/46/10
f 77/33/8 83/50/8 84/49/8 79/34/8
f 76/51/7 82/54/7 81/53/7 72/52/7
f 79/37/5 84/56/5 82/55/5 76/36/5
f 85/57/5 89/60/5 91/59/5 87/58/5
f 71/50/7 86/63/7 85/62/7 75/61/7
f 78/44/6 88/65/6 86/64/6 71/43/6
f 75/35/5 85/57/5 87/58/5 80/38/5
f 90/66/7 94/69/7 93/68/7 89/67/7
f 86/63/7 90/66/7 89/67/7 85/62/7
f 88/65/6 92/71/6 90/70/6 86/64/6
f 92/72/9 137/75/9 139/74/9 100/73/9
f 94/76/9 96/47/9 95/48/9 93/77/9
f 92/71/6 96/79/6 94/78/6 90/70/6
f 91/32/8 95/46/8 96/80/8 92/31/8
f 89/60/5 93/82/5 95/81/5 91/59/5
f 97/83/8 99/86/8 100/85/8 98/84/8
f 92/72/9 100/73/9 99/88/9 91/87/9
f 87/89/10 97/88/10 98/73/10 88/90/10
f 91/59/5 99/92/5 97/91/5 87/58/5
f 88/93/7 138/96/7 137/95/7 92/94/7
f 98/73/10 140/74/10 138/79/10 88/90/10
f 100/85/8 139/98/8 140/97/8 98/84/8
f 101/1/7 102/2/7 110/3/7 109/4/7
f 104/5/8 108/6/8 107/7/8 103/8/8
f 108/69/5 106/100/5 105/99/5 107/53/5
f 106/9/7 102/2/7 101/1/7 105/10/7
f 101/11/9 103/12/9 107/13/9 105/14/9
f 106/15/10 108/16/10 104/17/10 102/18/10
f 110/19/6 112/20/6 111/21/6 109/22/6
f 103/23/9 101/24/9 109/25/9 111/26/9
f 102/18/10 104/17/10 112/27/10 110/28/10
f 116/29/8 114/30/8 124/31/8 123/32/8
f 113/33/8 114/30/8 116/29/8 115/34/8
f 111/35/6 112/36/6 115/37/6 116/38/6
f 104/39/5 113/40/5 119/41/5 117/42/5
f 104/39/5 103/43/5 114/44/5 113/40/5
f 118/45/10 117/46/10 119/47/10 120/48/10
f 113/33/8 115/34/8 120/49/8 119/50/8
f 112/51/7 104/52/7 117/53/7 118/54/7
f 115/37/6 112/36/6 118/55/6 120/56/6
f 121/57/6 123/58/6 127/59/6 125/60/6
f 103/50/7 111/61/7 121/62/7 122/63/7
f 114/44/5 103/43/5 122/64/5 124/65/5
f 111/35/6 116/38/6 123/58/6 121/57/6
f 126/66/7 125/67/7 129/68/7 130/69/7
f 122/63/7 121/62/7 125/67/7 126/66/7
f 124/65/5 122/64/5 126/70/5 128/71/5
f 128/72/9 136/73/9 139/74/9 137/75/9
f 130/76/9 129/77/9 131/48/9 132/47/9
f 128/71/5 126/70/5 130/78/5 132/79/5
f 127/32/8 128/31/8 132/80/8 131/46/8
f 125/60/6 127/59/6 131/81/6 129/82/6
f 133/83/8 134/84/8 136/85/8 135/86/8
f 128/72/9 127/87/9 135/88/9 136/73/9
f 123/89/10 124/90/10 134/73/10 133/88/10
f 127/59/6 123/58/6 133/91/6 135/92/6
f 138/101/5 137/100/5 139/103/5 140/102/5
f 124/93/7 128/94/7 137/95/7 138/96/7
f 134/73/10 124/90/10 138/79/10 140/74/10
f 136/85/8 134/84/8 140/97/8 139/98/8
