# Blender v2.76 (sub 0) OBJ File: 'GroundTile5x5.blend'
# www.blender.org
mtllib GroundTile5x5.mtl
o Cube
v 5.000000 1.000000 -5.000000
v 5.000000 -1.000000 -5.000000
v 5.000000 1.000000 5.000000
v 5.000000 -1.000000 5.000000
v -5.000000 1.000000 -5.000000
v -5.000000 -1.000000 -5.000000
v -5.000000 1.000000 5.000000
v -5.000000 -1.000000 5.000000
vt 0.000000 1.000000
vt 0.000000 0.500000
vt 0.555555 0.500000
vt 0.555555 1.000000
vt 0.888889 0.500000
vt 0.888889 0.000000
vt 1.000000 0.000000
vt 1.000000 0.500000
vt 0.555555 0.000000
vt 0.000000 0.000000
vt 0.666666 0.000000
vt 0.666667 0.500000
vt 0.777778 0.000000
vt 0.777778 0.500000
vn 0.000000 -1.000000 0.000000
vn -1.000000 0.000000 0.000000
vn 0.000000 1.000000 0.000000
vn 1.000000 0.000000 0.000000
vn 0.000000 0.000000 -1.000000
vn 0.000000 0.000000 1.000000
usemtl Material
s off
f 8/1/1 6/2/1 2/3/1 4/4/1
f 7/5/2 5/6/2 6/7/2 8/8/2
f 3/9/3 1/3/3 5/2/3 7/10/3
f 1/3/4 3/9/4 4/11/4 2/12/4
f 5/12/5 1/11/5 2/13/5 6/14/5
f 3/6/6 7/5/6 8/14/6 4/13/6
